<svg xmlns="http://www.w3.org/2000/svg" xmlns:xlink="http://www.w3.org/1999/xlink" version="1.1" x="0px" y="0px" width="463px" height="539.75px" viewBox="0 0 537 539.75" enable-background="new 0 0 537 539.75" xml:space="preserve" class="skull">
  <path d="M294.68 144.469l-16.287-71.556 -15.648 50.623C274.969 128.456 285.729 135.648 294.68 144.469z"></path>
  <path d="M226.138 132.413c-19.583 0-37.782 6.846-52.04 18.616l-6.838 6.337c-8.661 9.007-15.343 20.1-19.244 32.715 -6.452 20.875-4.389 43.014 5.809 62.336 8.967 16.992 23.285 30.012 40.802 37.293l48.091-155.572C237.252 133 231.703 132.413 226.138 132.413z"></path>
  <path d="M247.465 118.787l15.488-50.105 -53.008 49.125c5.35-0.913 10.769-1.394 16.193-1.394C233.305 116.413 240.449 117.214 247.465 118.787z"></path>
  <path d="M131.231 190.755l-64.545 59.817 84.1 25.997c-4.213-5.116-7.946-10.688-11.11-16.685C128.358 238.441 125.427 214.1 131.231 190.755z"></path>
  <path d="M536.841 299.815c0.84-13.445-21.85-31.093-19.328-38.656s4.201-36.975-2.521-94.118S422.555 19.983 262.891 2.336 -0.134 132.588 1.546 239.311c1.681 106.722 100.84 138.656 139.496 152.101s47.899 7.563 47.899 12.604 14.286 7.563 21.849 5.883 15.126-17.647 23.529-25.21 24.37-10.084 27.731-8.403 6.723 13.445 12.605 19.327c5.882 5.882 5.883-4.201 5.883-4.201s-9.244-14.286-12.605-20.168 0-13.446 5.883-15.967 12.604 18.487 10.084 31.093 15.966 69.747 26.05 95.798 81.513 42.857 132.773 52.941 67.227 0 72.269-9.244 -12.604-42.017-11.765-46.218 16.807-28.572 17.647-34.454 -4.202-21.849-4.202-31.933 6.773-31.023 4.661-33.26c-3.293-3.486-9.438 1.172-17 0.332s-10.35-9.93-8.669-21.694S536.471 305.746 536.841 299.815zM354.228 352.019c-1.5 1.39-3.45 2.132-5.438 2.132 -0.79 0-1.585-0.117-2.361-0.356L48.722 261.766c-2.73-0.844-4.803-3.081-5.438-5.868 -0.634-2.787 0.266-5.7 2.362-7.643l111.402-103.242c1.646-1.637 3.352-3.221 5.122-4.746L274.196 36.449c2.096-1.943 5.067-2.621 7.8-1.775 2.731 0.844 4.804 3.081 5.438 5.868l69.156 303.834C357.225 347.162 356.324 350.075 354.228 352.019zM391 426.5c-4.5 5.5-34-12.5-20-25C380.79 392.759 395.5 421 391 426.5zM493.143 314.941c-7.563 10.084-21.848 29.412-47.898 10.084s-21.009-66.387 2.521-78.992 35.294-15.966 42.017-11.765c4.155 2.597 2.521 32.773 4.202 42.857S500.705 304.857 493.143 314.941z"></path>
  <path d="M283.689 293.334c-9.23 6.702-19.631 11.725-30.555 14.874l84.779 26.207 -19.785-86.923C311.475 265.966 299.644 281.75 283.689 293.334z"></path>
  <path d="M304.317 238.389c12.504-40.46-8.088-83.387-46.318-99.505l-48.073 155.511c5.367 1.095 10.812 1.659 16.271 1.659C262.264 296.055 293.658 272.881 304.317 238.389z"></path>
</svg>
